# AST/ASF file generated using VICON BodyLanguage
# -----------------------------------------------
:version 1.10
:name VICON
:units
  mass 1.0
  length 0.45
  angle deg
:documentation
   .ast/.asf automatically generated from VICON data using
   VICON BodyBuilder and BodyLanguage model FoxedUp or BRILLIANT.MOD
:root
   order TX TY TZ RX RY RZ
   axis XYZ
   position 0 0 0  
   orientation 0 0 0 
:bonedata
  begin
     id 1 
     name lhipjoint
     direction 0.653368 -0.678499 0.335782 
     length 2.51848 
     axis 0 0 0  XYZ
  end
  begin
     id 2 
     name lfemur
     direction 0.34202 -0.939693 0  
     length 6.57749  
     axis 0 0 20  XYZ
    dof rx ry rz
    limits (-160.0 20.0)
           (-70.0 70.0)
           (-60.0 70.0)
  end
  begin
     id 3 
     name ltibia
     direction 0.34202 -0.939693 0   
     length 7.94618   
     axis 0 0 20   XYZ
    dof rx
    limits (-10.0 170.0)
  end
  begin
     id 4 
     name lfoot
     direction 0.0811271 -0.222895 0.971461   
     length 2.31339   
     axis -90 7.62852e-016 20   XYZ
    dof rx rz
    limits (-45.0 90.0)
           (-70.0 20.0)
  end
  begin
     id 5 
     name ltoes
     direction 1.53568e-011 -4.21885e-011 1   
     length 1.15935   
     axis -90 7.62852e-016 20   XYZ
    dof rx
    limits (-90.0 20.0)
  end
  begin
     id 6 
     name rhipjoint
     direction -0.640058 -0.688614 0.340788   
     length 2.48149  
     axis 0 0 0  XYZ 
  end
  begin
     id 7 
     name rfemur
     direction -0.34202 -0.939693 0   
     length 6.57875   
     axis 0 0 -20   XYZ
    dof rx ry rz
    limits (-160.0 20.0)
           (-70.0 70.0)
           (-70.0 60.0)
  end
  begin
     id 8 
     name rtibia
     direction -0.34202 -0.939693 0   
     length 7.977   
     axis 0 0 -20   XYZ
    dof rx
    limits (-10.0 170.0)
 end
 begin
     id 9 
     name rfoot
     direction -0.0979793 -0.269196 0.958089   
     length 2.19857  
     axis -90 -7.62852e-016 -20   XYZ
    dof rx rz
    limits (-45.0 90.0)
           (-20.0 70.0)
  end
  begin
     id 10 
     name rtoes
     direction -1.53556e-011 -4.21868e-011 1   
     length 1.09838   
     axis -90 -7.62852e-016 -20   XYZ
    dof rx
    limits (-90.0 20.0)
  end
  begin
     id 11 
     name lowerback
     direction 0.0149039 0.998517 -0.0523597   
     length 2.10809   
     axis 0 0 0   XYZ
    dof rx ry rz
    limits (-20.0 45.0)
           (-30.0 30.0)
           (-30.0 30.0)
  end
  begin
     id 12 
     name upperback
     direction -0.00882659 0.999418 -0.0329624   
     length 2.1102   
     axis 0 0 0   XYZ
    dof rx ry rz
    limits (-20.0 45.0)
           (-30.0 30.0)
           (-30.0 30.0)
  end
  begin
     id 13 
     name thorax
     direction -0.0165585 0.999826 -0.0085833   
     length 2.11039   
     axis 0 0 0   XYZ
    dof rx ry rz
    limits (-20.0 45.0)
           (-30.0 30.0)
           (-30.0 30.0)
  end
  begin
     id 14 
     name lowerneck
     direction -0.0130877 0.999911 0.00260353   
     length 1.73253   
     axis 0 0 0   XYZ
    dof rx ry rz
    limits (-20.0 45.0)
           (-30.0 30.0)
           (-30.0 30.0)
  end
  begin
     id 15 
     name upperneck
     direction -0.0348454 0.928205 -0.370435   
     length 1.66692   
     axis 0 0 0   XYZ
    dof rx ry rz
    limits (-20.0 45.0)
           (-30.0 30.0)
           (-30.0 30.0)
  end
  begin
     id 16
     name head
     direction -0.00807754 0.992494 -0.122026  
     length 1.72765  
     axis 0 0 0   XYZ
    dof rx ry rz
    limits (-20.0 45.0)
           (-30.0 30.0)
           (-30.0 30.0)
  end
  begin
     id 17 
     name lclavicle
     direction 0.987582 0.144023 0.0627671  
     length 3.49235  
     axis 0 0 0   XYZ
    dof ry rz
    limits (-20.0 10.0)
           (0.0 20.0)
  end
  begin
     id 18 
     name lhumerus
     direction 1 -4.48958e-011 -1.45183e-018   
     length 5.41917   
     axis 180 -30 -90   XYZ
    dof rx ry rz
    limits (-60.0 90.0)
           (-90.0 90.0)
           (-90.0 90.0)
  end
  begin
     id 19
     name lradius
     direction 1 -4.48999e-011 5.75106e-027   
     length 2.44373   
     axis 180 -30 -90   XYZ
    dof rx
    limits (-10.0 170.0)
  end
  begin
     id 20
     name lwrist
     direction 1 -4.48987e-011 1.53461e-026   
     length 1.22186   
     axis -1.09697e-014 90 90   XYZ
    dof ry
    limits (-180.0 0.0)
 end
  begin
     id 21 
     name lhand
     direction 1 -4.48881e-011 3.06923e-026   
     length 0.727502   
     axis -1.95843e-014 90 90   XYZ
    dof rx rz
    limits (-90.0 90.0)
           (-45.0 45.0)
  end
  begin
     id 22 
     name lfingers
     direction 1 -4.48907e-011 6.13845e-026   
     length 0.586531   
     axis -3.91686e-014 90 90   XYZ
    dof rx
    limits (0.0 90.0)
  end
  begin
     id 23
     name lthumb
     direction 0.707107 -6.3487e-011 0.707107   
     length 0.842145   
     axis -90 45 2.85299e-015   XYZ
    dof rx rz
    limits (-45.0 45.0)
           (-45.0 45.0)
  end
  begin
     id 24 
     name rclavicle
     direction -0.980998 0.169556 0.0943023   
     length 3.29272  
     axis 0 0 0   XYZ 
    dof ry rz
    limits (-10.0 20.0)
           (-20.0 0.0)
  end
  begin
     id 25 
     name rhumerus
     direction -1 -1.83355e-005 2.45537e-005  
     length 5.58976   
     axis 180 30 90   XYZ
    dof rx ry rz
    limits (-90.0 60.0)
           (-90.0 90.0)
           (-90.0 90.0)
  end
  begin
     id 26 
     name rradius
     direction -1 -4.48967e-011 5.97228e-027   
     length 2.4806   
     axis 180 30 90   XYZ
    dof rx
    limits (-10.0 170.0)
  end
  begin
     id 27 
     name rwrist
     direction -1 -4.48963e-011 1.53461e-026   
     length 1.2403   
     axis -1.09697e-014 -90 -90   XYZ
    dof ry
    limits (-180.0 0.0)
  end
  begin
     id 28
     name rhand
     direction -1 -4.48881e-011 3.06923e-026   
     length 0.816009   
     axis -1.95843e-014 -90 -90   XYZ
    dof rx rz
    limits (-90.0 90.0)
           (-45.0 45.0)
  end
  begin
     id 29
     name rfingers
     direction -1 -4.49018e-011 6.13845e-026   
     length 0.657887   
     axis -3.91686e-014 -90 -90   XYZ
    dof rx
    limits (0.0 90.0)
  end
  begin
     id 30
     name rthumb
     direction -0.707107 -6.34872e-011 0.707107   
     length 0.944599   
     axis -90 -45 -2.85299e-015   XYZ
    dof rx rz
    limits (-45.0 45.0)
           (-45.0 45.0)
  end
:hierarchy
  begin
    root lhipjoint rhipjoint lowerback
    lhipjoint lfemur
    lfemur ltibia
    ltibia lfoot
    lfoot ltoes
    rhipjoint rfemur
    rfemur rtibia
    rtibia rfoot
    rfoot rtoes
    lowerback upperback
    upperback thorax
    thorax lowerneck lclavicle rclavicle
    lowerneck upperneck
    upperneck head
    lclavicle lhumerus
    lhumerus lradius
    lradius lwrist
    lwrist lhand lthumb
    lhand lfingers
    rclavicle rhumerus
    rhumerus rradius
    rradius rwrist
    rwrist rhand rthumb
    rhand rfingers
  end

#!OML:ASF F:\VICON\USERDATA\INSTALL\rory3\rory3.ASF
:FULLY-SPECIFIED
:DEGREES
74
root 5.48603 18.0384 16.2713 -159.447 -42.7204 174.998
lowerback -10.711 2.94688 -5.88067
upperback -10.1006 3.26723 -2.72352
thorax -4.85536 1.47533 0.659438
lowerneck -8.48397 -2.26374 -5.40819
upperneck 26.3285 -4.69726 5.0869
head 9.97238 -2.60926 2.11471
rclavicle -1.25284e-013 2.90226e-014
rhumerus 194.585 -33.9583 125.381
rradius 15.1512
rwrist 142.535
rhand -4.24351 6.87524
rfingers 7.12502
rthumb 21.5201 -21.9492
lclavicle -1.25284e-013 2.90226e-014
lhumerus -19.832 20.3942 -2.65224
lradius 18.9745
lwrist -38.211
lhand -4.29692 31.039
lfingers 7.12502
lthumb 21.4688 59.8694
rfemur -29.7984 1.74015 10.641
rtibia 26.6287
rfoot -48.4944 -19.1256
rtoes 57.1569
lfemur -21.0665 4.74709 -20.4575
ltibia 28.4407
lfoot -18.8343 27.6156
ltoes 13.7025
75
root 5.53188 18.0382 16.1259 -159.47 -42.7302 174.842
lowerback -10.9426 2.91929 -5.97947
upperback -9.79953 3.29716 -2.87813
thorax -4.40061 1.48926 0.575568
lowerneck -8.6487 -2.26591 -5.20523
upperneck 26.1286 -4.70053 5.12633
head 9.92823 -2.57249 2.09167
rclavicle -5.14355e-014 -5.1684e-014
rhumerus 191.64 -27.9747 126.637
rradius 16.2384
rwrist 150.024
rhand -6.28063 8.65264
rfingers 7.12502
rthumb 19.5626 -20.3832
lclavicle -5.14355e-014 -5.1684e-014
lhumerus -19.8997 21.689 -3.03915
lradius 18.7223
lwrist -39.0444
lhand -4.1261 30.8069
lfingers 7.12502
lthumb 21.6329 59.6184
rfemur -29.2098 1.77786 11.162
rtibia 26.4603
rfoot -47.8655 -20.5591
rtoes 56.313
lfemur -21.6367 4.39135 -20.2175
ltibia 28.3608
lfoot -22.6636 27.0546
ltoes 16.9185
76
root 5.57834 18.0413 15.9862 -159.867 -42.7945 175.236
lowerback -10.7918 2.97335 -5.75023
upperback -9.8333 3.34476 -2.85559
thorax -4.50427 1.50543 0.467465
lowerneck -8.47807 -2.24417 -5.14039
upperneck 26.1365 -4.68237 5.06131
head 9.89375 -2.57162 2.06148
rclavicle 7.91163e-014 1.07344e-014
rhumerus 189.424 -22.1313 127.426
rradius 17.5358
rwrist 157.444
rhand -8.13491 10.301
rfingers 7.12502
rthumb 17.779 -18.9063
lclavicle 7.91163e-014 1.07344e-014
lhumerus -20.0484 21.3977 -3.16671
lradius 18.6829
lwrist -38.6788
lhand -3.88047 30.9292
lfingers 7.12502
lthumb 21.8687 59.7134
rfemur -28.6169 2.01473 12.0433
rtibia 26.2306
rfoot -46.7999 -23.0751
rtoes 54.8218
lfemur -22.3544 4.2057 -19.601
ltibia 28.3834
lfoot -25.7489 26.7439
ltoes 20.148
77
root 5.62743 18.0436 15.8652 -160.475 -42.7361 175.949
lowerback -9.29578 3.58325 -4.82074
upperback -10.875 3.82584 -3.35155
thorax -6.37895 1.66246 -0.660071
lowerneck -7.1734 -2.39679 -4.684
upperneck 26.4331 -5.21309 5.204
head 9.77229 -2.82847 1.9879
rclavicle 1.88845e-015 1.74931e-014
rhumerus 190.296 -21.0381 125.701
rradius 17.8784
rwrist 159.185
rhand -7.73878 10.4535
rfingers 7.12502
rthumb 18.1602 -18.7188
lclavicle 1.88845e-015 1.74931e-014
lhumerus -18.9262 18.6733 -2.73342
lradius 18.8293
lwrist -37.0184
lhand -3.77592 31.1571
lfingers 7.12502
lthumb 21.9691 59.9295
rfemur -28.1417 2.6343 12.9663
rtibia 25.9991
rfoot -46.3333 -24.4555
rtoes 53.8953
lfemur -23.2339 4.15228 -18.8336
ltibia 28.506
lfoot -27.0672 27.1991
ltoes 20.9767
78
root 5.67535 18.0483 15.7417 -161.132 -42.9795 176.401
lowerback -9.64095 3.42408 -4.65184
upperback -10.1021 3.79442 -3.0006
thorax -5.34355 1.68136 -0.335092
lowerneck -7.73345 -2.45453 -4.45808
upperneck 25.8766 -5.05193 4.71995
head 9.65338 -2.73363 1.79237
rclavicle 1.49089e-015 -3.26007e-014
rhumerus 187.964 -21.9302 125.043
rradius 17.3988
rwrist 158.803
rhand -6.42567 10.1815
rfingers 7.12502
rthumb 19.4231 -18.8684
lclavicle 1.49089e-015 -3.26007e-014
lhumerus -19.6016 20.7858 -2.77641
lradius 18.7057
lwrist -37.6337
lhand -3.55831 31.1731
lfingers 7.12502
lthumb 22.178 59.9209
rfemur -27.2801 3.44324 13.6884
rtibia 25.7156
rfoot -46.5201 -25.3473
rtoes 53.1782
lfemur -23.9627 4.12483 -18.2196
ltibia 28.7553
lfoot -27.876 27.3749
ltoes 22.1113
